<?xml version="1.0" encoding="UTF-8" standalone="no"?>
<!-- Created with Inkscape (http://www.inkscape.org/) -->

<svg
   xmlns:dc="http://purl.org/dc/elements/1.1/"
   xmlns:cc="http://creativecommons.org/ns#"
   xmlns:rdf="http://www.w3.org/1999/02/22-rdf-syntax-ns#"
   xmlns:svg="http://www.w3.org/2000/svg"
   xmlns="http://www.w3.org/2000/svg"
   xmlns:sodipodi="http://sodipodi.sourceforge.net/DTD/sodipodi-0.dtd"
   xmlns:inkscape="http://www.inkscape.org/namespaces/inkscape"
   width="431.12363"
   height="82.570473"
   id="svg2"
   version="1.1"
   inkscape:version="0.48.4 r9939"
   sodipodi:docname="New document 1">
  <sodipodi:namedview
     id="base"
     pagecolor="#ffffff"
     bordercolor="#666666"
     borderopacity="1.0"
     inkscape:pageopacity="0.0"
     inkscape:pageshadow="2"
     inkscape:zoom="1.1703125"
     inkscape:cx="190.57943"
     inkscape:cy="-137.79839"
     inkscape:document-units="px"
     inkscape:current-layer="layer1"
     showgrid="false"
     inkscape:window-width="1634"
     inkscape:window-height="967"
     inkscape:window-x="286"
     inkscape:window-y="24"
     inkscape:window-maximized="0"
     fit-margin-top="1"
     fit-margin-left="1"
     fit-margin-right="1"
     fit-margin-bottom="1" />
  <defs
     id="defs4">
    <marker
       style="overflow:visible"
       id="Arrow1Lend"
       refX="0"
       refY="0"
       orient="auto"
       inkscape:stockid="Arrow1Lend">
      <path
         transform="matrix(-0.8,0,0,-0.8,-10,0)"
         style="fill-rule:evenodd;stroke:#000000;stroke-width:1pt"
         d="M 0,0 5,-5 -12.5,0 5,5 0,0 z"
         id="path3798"
         inkscape:connector-curvature="0" />
    </marker>
    <marker
       style="overflow:visible"
       id="Arrow2Mend"
       refX="0"
       refY="0"
       orient="auto"
       inkscape:stockid="Arrow2Mend">
      <path
         transform="scale(-0.6,-0.6)"
         d="M 8.7185878,4.0337352 -2.2072895,0.01601326 8.7185884,-4.0017078 c -1.7454984,2.3720609 -1.7354408,5.6174519 -6e-7,8.035443 z"
         style="fill-rule:evenodd;stroke-width:0.625;stroke-linejoin:round"
         id="path3822"
         inkscape:connector-curvature="0" />
    </marker>
    <marker
       style="overflow:visible"
       id="Arrow1Mend"
       refX="0"
       refY="0"
       orient="auto"
       inkscape:stockid="Arrow1Mend">
      <path
         transform="matrix(-0.4,0,0,-0.4,-4,0)"
         style="fill-rule:evenodd;stroke:#000000;stroke-width:1pt"
         d="M 0,0 5,-5 -12.5,0 5,5 0,0 z"
         id="path3804"
         inkscape:connector-curvature="0" />
    </marker>
    <marker
       style="overflow:visible"
       id="Arrow1LendH"
       refX="0"
       refY="0"
       orient="auto"
       inkscape:stockid="Arrow1LendH">
      <path
         transform="matrix(-0.8,0,0,-0.8,-10,0)"
         style="fill:#ffffff;fill-rule:evenodd;stroke:#ffffff;stroke-width:1pt"
         d="M 0,0 5,-5 -12.5,0 5,5 0,0 z"
         id="path4618"
         inkscape:connector-curvature="0" />
    </marker>
  </defs>
  <metadata
     id="metadata7">
    <rdf:RDF>
      <cc:Work
         rdf:about="">
        <dc:format>image/svg+xml</dc:format>
        <dc:type
           rdf:resource="http://purl.org/dc/dcmitype/StillImage" />
        <dc:title></dc:title>
      </cc:Work>
    </rdf:RDF>
  </metadata>
  <g
     id="layer1"
     inkscape:groupmode="layer"
     inkscape:label="Layer 1"
     transform="translate(-67.357819,-106.91989)">
    <path
       transform="matrix(1.1558642,0,0,1.2003206,-23.494037,-20.607835)"
       d="m 148.67824,140.63989 c 0,18.40458 -15.4937,33.32443 -34.60614,33.32443 -19.112446,0 -34.606142,-14.91985 -34.606142,-33.32443 0,-18.40457 15.493696,-33.32443 34.606142,-33.32443 19.11244,0 34.60614,14.91986 34.60614,33.32443 z"
       sodipodi:ry="33.324432"
       sodipodi:rx="34.60614"
       sodipodi:cy="140.63989"
       sodipodi:cx="114.0721"
       id="path2985"
       style="fill:#ff6464;fill-opacity:1;stroke:none"
       sodipodi:type="arc" />
    <path
       sodipodi:type="arc"
       style="fill:#ff6464;fill-opacity:1;stroke:none"
       id="path3755"
       sodipodi:cx="114.0721"
       sodipodi:cy="140.63989"
       sodipodi:rx="34.60614"
       sodipodi:ry="33.324432"
       d="m 148.67824,140.63989 c 0,18.40458 -15.4937,33.32443 -34.60614,33.32443 -19.112446,0 -34.606142,-14.91985 -34.606142,-33.32443 0,-18.40457 15.493696,-33.32443 34.606142,-33.32443 19.11244,0 34.60614,14.91986 34.60614,33.32443 z"
       transform="matrix(0.8173405,0,0,0.84877668,161.39888,28.833265)" />
    <path
       transform="matrix(0.8173405,0,0,0.84877669,217.96888,28.833263)"
       d="m 148.67824,140.63989 c 0,18.40458 -15.4937,33.32443 -34.60614,33.32443 -19.112446,0 -34.606142,-14.91985 -34.606142,-33.32443 0,-18.40457 15.493696,-33.32443 34.606142,-33.32443 19.11244,0 34.60614,14.91986 34.60614,33.32443 z"
       sodipodi:ry="33.324432"
       sodipodi:rx="34.60614"
       sodipodi:cy="140.63989"
       sodipodi:cx="114.0721"
       id="path3757"
       style="fill:#009664;fill-opacity:1;stroke:none"
       sodipodi:type="arc" />
    <path
       transform="matrix(0.57793212,0,0,0.60016027,371.55552,84.08387)"
       d="m 148.67824,140.63989 c 0,18.40458 -15.4937,33.32443 -34.60614,33.32443 -19.112446,0 -34.606142,-14.91985 -34.606142,-33.32443 0,-18.40457 15.493696,-33.32443 34.606142,-33.32443 19.11244,0 34.60614,14.91986 34.60614,33.32443 z"
       sodipodi:ry="33.324432"
       sodipodi:rx="34.60614"
       sodipodi:cy="140.63989"
       sodipodi:cx="114.0721"
       id="path3759"
       style="fill:#ff8cff;fill-opacity:1;stroke:none"
       sodipodi:type="arc" />
    <path
       sodipodi:type="arc"
       style="fill:#00ff96;fill-opacity:1;stroke:none"
       id="path3761"
       sodipodi:cx="114.0721"
       sodipodi:cy="140.63989"
       sodipodi:rx="34.60614"
       sodipodi:ry="33.324432"
       d="m 148.67824,140.63989 c 0,18.40458 -15.4937,33.32443 -34.60614,33.32443 -19.112446,0 -34.606142,-14.91985 -34.606142,-33.32443 0,-18.40457 15.493696,-33.32443 34.606142,-33.32443 19.11244,0 34.60614,14.91986 34.60614,33.32443 z"
       transform="matrix(0.57793212,0,0,0.60016029,411.55551,84.083884)" />
    <path
       sodipodi:type="arc"
       style="fill:#ff6464;fill-opacity:1;stroke:none"
       id="path3763"
       sodipodi:cx="114.0721"
       sodipodi:cy="140.63989"
       sodipodi:rx="34.60614"
       sodipodi:ry="33.324432"
       d="m 148.67824,140.63989 c 0,18.40458 -15.4937,33.32443 -34.60614,33.32443 -19.112446,0 -34.606142,-14.91985 -34.606142,-33.32443 0,-18.40457 15.493696,-33.32443 34.606142,-33.32443 19.11244,0 34.60614,14.91986 34.60614,33.32443 z"
       transform="matrix(0.57793212,0,0,0.60016029,371.55552,43.51341)" />
    <path
       transform="matrix(0.57793212,0,0,0.60016029,411.55551,43.51341)"
       d="m 148.67824,140.63989 c 0,18.40458 -15.4937,33.32443 -34.60614,33.32443 -19.112446,0 -34.606142,-14.91985 -34.606142,-33.32443 0,-18.40457 15.493696,-33.32443 34.606142,-33.32443 19.11244,0 34.60614,14.91986 34.60614,33.32443 z"
       sodipodi:ry="33.324432"
       sodipodi:rx="34.60614"
       sodipodi:cy="140.63989"
       sodipodi:cx="114.0721"
       id="path3765"
       style="fill:#009664;fill-opacity:1;stroke:none"
       sodipodi:type="arc" />
    <path
       inkscape:connector-curvature="0"
       id="path3789"
       d="m 155.51402,148.20513 60.66756,0"
       style="fill:none;stroke:#ffffff;stroke-width:1px;stroke-linecap:butt;stroke-linejoin:miter;stroke-opacity:1;marker-end:url(#Arrow1LendH)" />
    <path
       style="fill:none;stroke:#ffffff;stroke-width:1px;stroke-linecap:butt;stroke-linejoin:miter;stroke-opacity:1;marker-end:url(#Arrow1LendH)"
       d="m 349.47931,148.20513 60.66756,0"
       id="path4650"
       inkscape:connector-curvature="0" />
  </g>
</svg>
